PathFileType	4	(X/Y/Z)	Kaydara																																																																																																																									
DataRate	CameraRate	NumFrames	NumMarkers	Units	OrigDataRate	OrigDataStartFrame	OrigNumFrames																																																																																																																					
30	30	4	41	mm	30	130	147																																																																																																																					
Frame#	Time	PAIB_LFHD			PAIB_RFHD			PAIB_LBHD			PAIB_RBHD			PAIB_LFTShould			PAIB_RFTShould			PAIB_LRRShould			PAIB_RRRShould			PAIB_T10			PAIB_STRN			PAIB_TRUN			PAIB_LSHO			PAIB_LUPA			PAIB_LELB			PAIB_LFRM			PAIB_LWRA			PAIB_LWRB			PAIB_LFIN			PAIB_RSHO			PAIB_RUPA			PAIB_RELB			PAIB_RFRM			PAIB_RWRA			PAIB_RWRB			PAIB_RFIN			PAIB_LFWT			PAIB_RFWT			PAIB_LBWT			PAIB_RBWT			PAIB_LTHI			PAIB_LKNE			PAIB_LSHN			PAIB_LANK			PAIB_LHEE			PAIB_LTOE			PAIB_RTHI			PAIB_RKNE			PAIB_RSHN			PAIB_RANK			PAIB_RHEE			PAIB_RTOE		
		X1	Y1	Z1	X2	Y2	Z2	X3	Y3	Z3	X4	Y4	Z4	X5	Y5	Z5	X6	Y6	Z6	X7	Y7	Z7	X8	Y8	Z8	X9	Y9	Z9	X10	Y10	Z10	X11	Y11	Z11	X12	Y12	Z12	X13	Y13	Z13	X14	Y14	Z14	X15	Y15	Z15	X16	Y16	Z16	X17	Y17	Z17	X18	Y18	Z18	X19	Y19	Z19	X20	Y20	Z20	X21	Y21	Z21	X22	Y22	Z22	X23	Y23	Z23	X24	Y24	Z24	X25	Y25	Z25	X26	Y26	Z26	X27	Y27	Z27	X28	Y28	Z28	X29	Y29	Z29	X30	Y30	Z30	X31	Y31	Z31	X32	Y32	Z32	X33	Y33	Z33	X34	Y34	Z34	X35	Y35	Z35	X36	Y36	Z36	X37	Y37	Z37	X38	Y38	Z38	X39	Y39	Z39	X40	Y40	Z40	X41	Y41	Z41
																																																																																																																												
92	4.303	267.43994	1634.3013	319.21711	83.64234	1631.87698	302.58995	286.75348	1597.34863	196.75434	83.96215	1606.95038	189.50388	240.263	1364.31732	320.73711	117.78867	1355.55969	307.1405	261.56803	1428.58368	174.30792	107.48406	1421.60919	171.27666	193.62366	1266.35002	93.18698	185.31483	1295.04013	350.98011	185.59633	1193.5331	372.56538	374.07761	1378.12881	252.30833	444.74812	1158.45695	276.06884	470.57465	1071.78497	252.37698	480.96855	980.23384	340.44987	414.16008	922.40837	467.79297	451.47091	871.64391	415.6908	462.02599	869.78729	488.58894	-6.36438	1353.14621	235.2359	-60.4042	1187.90665	157.44581	-77.48014	1073.96278	127.85805	-97.93669	936.3224	125.32404	-49.27779	809.56779	202.31813	-111.3824	809.86046	143.48175	-110.53157	759.46426	198.72475	310.886	910.36507	322.48924	79.22765	918.56918	342.94071	220.79403	957.50908	110.27336	77.14193	947.49611	123.16812	264.28429	725.42671	76.19006	308.91489	478.19069	98.10155	267.2785	284.19186	21.25299	251.6217	157.5996	-142.15027	196.2513	174.42165	-187.50124	215.48498	51.08465	-12.41819	45.89427	641.66466	241.31409	66.27989	458.42289	422.45281	140.48884	292.14462	494.23866	116.1693	79.7036	470.79601	175.91883	73.15271	419.2358	143.92036	79.43026	650.68588
93	4.337	266.09301	1639.12857	364.93221	82.23269	1637.08496	348.47492	285.22383	1601.20239	242.778	82.42598	1611.3385	235.50611	238.15464	1369.81827	368.74168	116.48415	1361.04507	354.87598	260.47321	1433.09189	222.267	106.22859	1426.06628	218.5293	192.80977	1270.30907	141.36139	183.30637	1300.67841	399.4249	183.46815	1199.39484	421.85146	372.39529	1382.53876	301.52973	441.04103	1161.30203	319.64792	465.33272	1074.89006	293.54103	478.16902	979.50447	376.41529	414.61216	914.63326	502.11262	450.9959	866.93779	446.46702	463.44673	861.53099	518.94196	-7.83276	1357.59735	283.19065	-60.52793	1189.73999	210.53076	-76.99699	1074.99001	183.93896	-96.80775	937.47093	184.69442	-46.63702	812.3307	263.41595	-109.64765	811.36681	205.58964	-107.63084	762.02019	261.78528	307.22759	914.66812	372.7504	75.57961	926.52138	392.76127	220.87086	959.33701	159.76738	76.95058	953.2946	172.03661	263.98111	718.41026	134.6752	317.65097	472.29954	174.36605	278.91291	288.24202	73.24656	264.68267	188.99361	-109.36412	208.46447	214.21276	-149.27731	218.84487	49.33814	-14.91561	40.33234	647.5914	288.67527	67.10057	460.3796	470.55931	141.76048	287.89392	524.26243	114.78148	72.94044	490.01488	173.04363	77.1223	427.46365	145.87097	60.16952	651.1702
94	4.37	265.11328	1644.33746	410.30865	81.26544	1641.93558	393.8942	284.20483	1606.05148	288.27082	81.41106	1615.91095	281.05076	236.90372	1376.14563	414.45183	115.18987	1367.22656	402.01939	258.62869	1438.91708	267.54612	104.57005	1431.94077	265.87988	190.10845	1276.06529	186.62035	182.59745	1306.85455	445.83672	182.68091	1205.60509	468.37685	370.7444	1389.20898	347.43706	436.19514	1166.72806	361.27403	459.99622	1080.72098	331.08147	474.92233	980.32722	407.51289	414.19933	906.52916	530.14343	450.42728	863.80806	470.08156	463.69705	852.38235	541.71272	-9.25733	1364.5932	332.65308	-62.10654	1194.52621	265.35202	-77.85287	1079.11034	241.00174	-96.33658	940.94727	247.77506	-44.54327	819.84665	331.87576	-107.57072	815.77347	274.30044	-105.23789	769.15627	332.77077	303.97797	918.57254	418.24272	72.04145	932.79037	439.58778	219.39594	960.7621	205.47443	75.88458	958.15292	217.00726	265.83912	700.32227	198.76095	326.97578	458.43395	263.49115	286.88437	293.17633	142.8998	277.51904	222.74456	-51.0745	226.42309	260.0948	-88.46446	217.89566	57.27118	-6.29736	32.98819	652.85782	333.5339	68.96361	464.12437	506.5498	143.42913	284.68729	542.93194	115.60154	73.18795	487.35756	171.46229	79.49081	429.99466	152.44387	54.25838	655.83176
95	4.403	264.76154	1650.57739	454.72416	80.93038	1647.79678	438.77308	283.61979	1612.35947	332.51713	80.72422	1621.90338	325.9127	239.03593	1380.90698	458.7154	117.18596	1372.97028	449.08546	256.91023	1444.99237	311.56868	102.50583	1438.17978	313.34236	185.74141	1282.74918	231.33442	185.0214	1311.56113	490.91309	185.43343	1210.04318	512.37232	370.92113	1394.13742	388.91773	433.83007	1170.27504	399.06456	456.51104	1084.76639	366.41651	472.5193	980.50179	435.62531	412.70103	897.7507	553.30502	448.34923	859.21173	490.25642	462.39296	842.73956	560.42679	-9.53144	1370.93674	383.59623	-65.01406	1199.46609	321.40263	-81.34212	1083.18169	299.82901	-97.58692	944.6122	314.26826	-42.65954	829.88312	404.96613	-105.89552	820.94444	348.30837	-102.77424	778.70331	409.69425	302.61255	922.1666	461.39572	70.40799	937.82921	483.47561	218.93362	961.52695	247.3192	74.92733	966.20682	261.18502	268.0765	682.8363	265.28585	331.37932	448.49411	357.77748	291.20848	302.83516	223.43073	283.60926	254.61521	21.93042	232.44566	296.7061	-10.27964	236.81015	81.42129	49.82094	32.72249	660.41954	362.00897	65.77207	459.10473	524.49615	143.16569	281.19324	554.18064	115.3025	72.8588	492.26631	171.9269	81.50697	431.37161	152.93248	52.04312	657.87827
